<svg xmlns="http://www.w3.org/2000/svg" viewBox="0 0 600 400" role="img" aria-labelledby="astroTitle">
  <title id="astroTitle">Astro Blog template hero</title>
  <defs>
    <linearGradient id="astroBg" x1="0" y1="0" x2="1" y2="1">
      <stop offset="0%" stop-color="#171a0e"/>
      <stop offset="60%" stop-color="#32482c"/>
      <stop offset="100%" stop-color="#688479"/>
    </linearGradient>
    <radialGradient id="astroGlow" cx="0.78" cy="0.28" r="0.55">
      <stop offset="0%" stop-color="#cda942" stop-opacity="0.45"/>
      <stop offset="100%" stop-color="#cda942" stop-opacity="0"/>
    </radialGradient>
  </defs>
  <rect width="600" height="400" fill="url(#astroBg)"/>
  <rect width="600" height="400" fill="url(#astroGlow)"/>
  <g fill="#fdfcf9" opacity="0.9">
    <circle cx="120" cy="80" r="1.4"/>
    <circle cx="220" cy="60" r="1"/>
    <circle cx="340" cy="110" r="1.6"/>
    <circle cx="420" cy="70" r="1.2"/>
    <circle cx="500" cy="130" r="1"/>
    <circle cx="80" cy="160" r="1.2"/>
    <circle cx="540" cy="220" r="1.4"/>
    <circle cx="160" cy="260" r="1"/>
    <circle cx="260" cy="320" r="1.2"/>
    <circle cx="460" cy="340" r="1.4"/>
  </g>
  <g transform="translate(450,90)" fill="#cda942">
    <path d="M0,-22 L4,-6 L20,0 L4,6 L0,22 L-4,6 L-20,0 L-4,-6 Z"/>
  </g>
  <g transform="translate(380,200)" fill="#fdfcf9" opacity="0.85">
    <path d="M0,-12 L2,-3 L11,0 L2,3 L0,12 L-2,3 L-11,0 L-2,-3 Z"/>
  </g>
  <g transform="translate(520,280)" fill="#cda942" opacity="0.75">
    <path d="M0,-8 L1.5,-2 L7,0 L1.5,2 L0,8 L-1.5,2 L-7,0 L-1.5,-2 Z"/>
  </g>
  <text x="48" y="280" font-family="system-ui, -apple-system, Segoe UI, sans-serif" font-size="56" font-weight="700" fill="#fdfcf9" letter-spacing="-1.5">Astro</text>
  <text x="48" y="320" font-family="system-ui, -apple-system, Segoe UI, sans-serif" font-size="22" font-weight="500" fill="#e1d8ac" opacity="0.85">Content-first blog</text>
  <g transform="translate(48,344)">
    <rect width="64" height="22" rx="11" fill="#fdfcf9" fill-opacity="0.12" stroke="#fdfcf9" stroke-opacity="0.35"/>
    <text x="32" y="15" text-anchor="middle" font-family="system-ui, -apple-system, Segoe UI, sans-serif" font-size="11" font-weight="600" fill="#fdfcf9" letter-spacing="1.2">STATIC</text>
  </g>
</svg>
