<svg xmlns="http://www.w3.org/2000/svg" viewBox="0 0 600 400" role="img" aria-labelledby="honoTitle">
  <title id="honoTitle">Hono Edge API template hero</title>
  <defs>
    <linearGradient id="honoBg" x1="0" y1="0" x2="1" y2="1">
      <stop offset="0%" stop-color="#171a0e"/>
      <stop offset="60%" stop-color="#9a6215"/>
      <stop offset="100%" stop-color="#cda942"/>
    </linearGradient>
    <linearGradient id="honoFlame" x1="0" y1="1" x2="0" y2="0">
      <stop offset="0%" stop-color="#cda942"/>
      <stop offset="60%" stop-color="#e1d8ac"/>
      <stop offset="100%" stop-color="#fdfcf9"/>
    </linearGradient>
  </defs>
  <rect width="600" height="400" fill="url(#honoBg)"/>
  <g transform="translate(440,200)">
    <path d="M0,-110 C30,-70 60,-50 60,-10 C60,30 30,55 0,55 C-30,55 -60,30 -60,-10 C-60,-50 -30,-70 0,-110 Z" fill="url(#honoFlame)" opacity="0.95"/>
    <path d="M0,-60 C18,-35 30,-25 30,0 C30,22 12,38 0,38 C-12,38 -30,22 -30,0 C-30,-25 -18,-35 0,-60 Z" fill="#9a6215" opacity="0.6"/>
  </g>
  <text x="48" y="270" font-family="system-ui, -apple-system, Segoe UI, sans-serif" font-size="56" font-weight="700" fill="#fdfcf9" letter-spacing="-1.5">Hono</text>
  <text x="48" y="306" font-family="system-ui, -apple-system, Segoe UI, sans-serif" font-size="20" font-weight="500" fill="#e1d8ac" opacity="0.9">Edge API on Workers</text>
  <g transform="translate(48,332)">
    <rect width="68" height="22" rx="11" fill="#171a0e" fill-opacity="0.85" stroke="#fdfcf9" stroke-opacity="0.25"/>
    <text x="34" y="15" text-anchor="middle" font-family="system-ui, -apple-system, Segoe UI, sans-serif" font-size="11" font-weight="600" fill="#fdfcf9" letter-spacing="1.2">HYBRID</text>
  </g>
</svg>
